<?xml version="1.0" encoding="utf-8"?>
<!-- Generator: Adobe Illustrator 22.0.1, SVG Export Plug-In . SVG Version: 6.00 Build 0)  -->
<svg version="1.1" id="Warstwa_1" xmlns="http://www.w3.org/2000/svg" xmlns:xlink="http://www.w3.org/1999/xlink" x="0px" y="0px"
	 viewBox="0 0 100 100" style="enable-background:new 0 0 100 100;" xml:space="preserve">
<style type="text/css">
	.st0{fill:none;}
	.st1{fill:#3C3C3C;}
</style>
<desc>Created with Sketch.</desc>
<g id="Page-1">
	<g id="logo-theGuys">
		<g id="logotg">
			<g id="Shape">
				<path class="st0" d="M28.1,47.9c-0.2-0.3-0.5-0.5-0.9-0.6c-0.3-0.1-0.7-0.2-1.1-0.2c-0.5,0-0.9,0.1-1.3,0.3
					c-0.4,0.2-0.7,0.4-1,0.7c-0.3,0.3-0.5,0.7-0.6,1.1c-0.1,0.5-0.2,0.9-0.2,1.4c0,0.5,0.1,1.1,0.2,1.6c0.1,0.4,0.3,0.8,0.6,1.2
					c0.3,0.3,0.6,0.6,1,0.7c0.4,0.2,0.9,0.3,1.3,0.3c0.3,0,0.5,0,0.8-0.1c0.2-0.1,0.5-0.1,0.7-0.2c0.2-0.1,0.4-0.2,0.6-0.3
					c0.2-0.1,0.3-0.2,0.4-0.4l-0.1-0.1h-0.1c-0.1,0-0.1,0.1-0.2,0.1c-0.1,0.1-0.3,0.2-0.4,0.3c-0.2,0.1-0.4,0.2-0.7,0.3
					c-0.3,0.1-0.7,0.1-1,0.1c-0.4,0-0.8-0.1-1.2-0.2c-0.3-0.1-0.6-0.4-0.9-0.7c-0.3-0.3-0.5-0.7-0.6-1.1c-0.1-0.5-0.2-1-0.2-1.5
					v-0.1v-0.1h5.3l0,0c0.1,0,0.1-0.1,0.1-0.1c0-0.4-0.1-0.9-0.2-1.3C28.6,48.5,28.4,48.1,28.1,47.9z M23.5,50
					c0-0.4,0.1-0.8,0.3-1.1c0.1-0.3,0.3-0.6,0.5-0.8c0.2-0.2,0.5-0.4,0.8-0.5c0.3-0.1,0.7-0.2,1.1-0.2c0.3,0,0.7,0.1,1,0.2
					c0.3,0.1,0.5,0.3,0.8,0.5c0.2,0.2,0.4,0.5,0.5,0.8c0.1,0.4,0.2,0.7,0.2,1.1H23.5z"/>
				<path class="st0" d="M55,40.6v10.6c-0.4,0.5-1,0.8-1.5,1.1c-0.5,0.3-1.1,0.4-1.7,0.4c-0.7,0.1-1.4-0.2-1.9-0.7
					c-0.4-0.6-0.7-1.3-0.6-2.1v-9.3h-3.5V50c0,0.8,0.1,1.5,0.3,2.3c0.2,0.6,0.5,1.2,1,1.8c0.4,0.5,1,0.9,1.6,1.2
					c0.7,0.3,1.4,0.4,2.1,0.4c0.9,0,1.8-0.2,2.6-0.6c0.7-0.4,1.4-0.9,2-1.5l0.2,1.2c0.1,0.4,0.5,0.7,0.9,0.6h2.2V40.6l0,0H55z"/>
				<path class="st0" d="M21.4,47.8c-0.2-0.2-0.4-0.4-0.7-0.5c-0.3-0.1-0.7-0.2-1-0.2c-0.5,0-1,0.1-1.5,0.4
					c-0.5,0.3-0.9,0.6-1.2,1.1V44h-0.4v10.4H17V49c0.3-0.4,0.7-0.8,1.2-1.1c0.4-0.3,0.9-0.4,1.4-0.4c0.3,0,0.6,0,0.9,0.2
					c0.2,0.1,0.5,0.3,0.6,0.5c0.2,0.2,0.3,0.5,0.4,0.8s0.1,0.7,0.1,1v4.5H22V50c0-0.4,0-0.8-0.1-1.1C21.8,48.3,21.6,48,21.4,47.8z"
					/>
				<path class="st0" d="M71.6,40.6c-0.2,0-0.4,0.1-0.6,0.2s-0.3,0.3-0.4,0.5l-2.9,7.6c-0.1,0.3-0.2,0.5-0.3,0.8l-0.3,0.8
					C67,50.2,67,50,66.9,49.7c-0.1-0.3-0.2-0.5-0.3-0.8l-3.1-7.6c-0.1-0.2-0.2-0.3-0.4-0.5c-0.2-0.1-0.4-0.2-0.7-0.2h-3.1l5.9,13.6
					l-2.7,5.9h2.6c0.3,0,0.5,0,0.8-0.2c0.2-0.2,0.3-0.3,0.4-0.6l8-18.7l0,0H71.6L71.6,40.6z"/>
				<path class="st0" d="M43.2,52.6c-0.5-0.3-1-0.5-1.5-0.6c-0.6-0.1-1.2-0.2-1.8-0.3c-0.6,0-1.2-0.1-1.8-0.1c-0.5,0-1,0-1.5-0.1
					c-0.4,0-0.7-0.1-1.1-0.3c-0.3-0.1-0.4-0.4-0.4-0.7c0-0.4,0.3-0.8,0.7-0.9c0.3,0,0.5,0.1,0.8,0.1h0.8c0.8,0,1.5-0.1,2.3-0.3
					c0.7-0.2,1.3-0.5,1.8-1c1.1-0.8,1.7-2.1,1.6-3.5c0-0.6-0.1-1.1-0.3-1.7l1-0.2c0.5-0.1,0.5-0.4,0.5-0.8v-1.3h-3.7
					c-0.5-0.4-1-0.4-1.5-0.6c-1.4-0.3-2.8-0.2-4.1,0.1c-0.1,0-0.2,0.1-0.4,0.1c0.1,0.3,0.1,0.5,0.1,0.8c0,0.8-0.3,1.7-0.8,2.3
					c-0.5,0.6-0.9,1.2-1.3,1.9v0.1v1.2H32c0.1,0.1,0.2,0.2,0.2,0.4c0.4,0.7,1,1.2,1.8,1.6c-0.3,0.1-0.6,0.3-0.8,0.5
					c-0.2,0.2-0.4,0.4-0.6,0.6c-0.2,0.2-0.3,0.4-0.4,0.7c-0.1,0.2-0.1,0.4-0.1,0.7c0,0.5,0.1,0.9,0.3,1.3c0.2,0.3,0.6,0.6,0.9,0.8
					c-0.7,0.2-1.2,0.6-1.7,1.1C31.2,55.4,31,56,31,56.6c0,0.5,0.1,1,0.4,1.5c0.3,0.5,0.7,0.9,1.2,1.2c0.6,0.4,1.3,0.7,2.1,0.8
					c0.9,0.2,1.9,0.3,2.9,0.3c1,0,2-0.1,3-0.4c0.8-0.3,1.6-0.6,2.2-1.2c0.6-0.4,1-1,1.4-1.6c0.3-0.6,0.5-1.2,0.5-1.9
					c0-0.6-0.1-1.2-0.4-1.7C44,53.2,43.6,52.9,43.2,52.6z M35.4,43.5c0.5-0.5,1.2-0.7,2-0.6c0.7-0.1,1.4,0.2,2,0.6
					c0.4,0.5,0.7,1.1,0.7,1.7c0,0.3,0,0.7-0.2,1l0,0c-0.1,0.3-0.3,0.5-0.5,0.8c-0.2,0.2-0.5,0.4-0.8,0.5c-0.7,0.2-1.5,0.2-2.3,0
					c-0.3-0.1-0.6-0.3-0.8-0.5c-0.2-0.2-0.4-0.5-0.5-0.8s-0.2-0.6-0.2-1C34.7,44.6,35,43.9,35.4,43.5z M41.2,56.8
					c-0.2,0.3-0.4,0.5-0.7,0.6c-0.4,0.2-0.8,0.3-1.2,0.4c-1.1,0.2-2.2,0.2-3.4,0c-0.4-0.1-0.8-0.2-1.1-0.4c-0.3-0.1-0.5-0.3-0.6-0.5
					c-0.1-0.2-0.2-0.5-0.2-0.7c0-0.4,0.1-0.7,0.4-1c0.3-0.3,0.6-0.6,1-0.8c0.4,0.1,0.9,0.1,1.4,0.1l1.4,0.1c0.4,0,0.9,0.1,1.3,0.1
					c0.4,0,0.7,0.1,1,0.2c0.3,0.1,0.5,0.2,0.7,0.4c0.2,0.2,0.3,0.4,0.3,0.7C41.4,56.2,41.3,56.5,41.2,56.8z"/>
				<path class="st0" d="M15.4,53.5c-0.1,0-0.1,0-0.1,0.1c-0.1,0.1-0.2,0.1-0.2,0.2c-0.1,0.1-0.2,0.1-0.4,0.2
					c-0.3,0.1-0.6,0.1-0.9,0c-0.1,0-0.2-0.1-0.3-0.2c-0.1-0.1-0.2-0.2-0.2-0.4C13.1,53.2,13,53,13,52.8v-5.1h2.3v-0.3H13v-2.8h-0.1
					h-0.1v0.1l-0.1,2.7h-1.2v0.1l0,0c0,0.1,0.1,0.1,0.1,0.1h1.1v5.1c0,0.4,0.1,0.8,0.4,1.2c0.3,0.3,0.7,0.4,1,0.4h0.4
					c0.1,0,0.3-0.1,0.4-0.1c0.1-0.1,0.2-0.1,0.4-0.2c0.1-0.1,0.2-0.2,0.3-0.3L15.4,53.5C15.4,53.6,15.4,53.5,15.4,53.5z"/>
				<path class="st0" d="M83.5,47.3c-0.4-0.2-0.9-0.4-1.3-0.5c-0.4-0.1-0.9-0.3-1.3-0.4c-0.4-0.1-0.8-0.3-1.2-0.4
					c-0.3-0.1-0.6-0.3-0.8-0.6c-0.2-0.2-0.3-0.5-0.3-0.8c0-0.5,0.2-0.9,0.6-1.2c0.5-0.3,1.1-0.5,1.6-0.4c0.4,0,0.8,0,1.2,0.1
					c0.3,0.1,0.6,0.2,0.9,0.3l0.7,0.3c0.2,0.1,0.4,0.1,0.5,0.1s0.3,0,0.4-0.1s0.2-0.2,0.3-0.3l0.8-1.3c-0.6-0.6-1.3-1-2.1-1.3
					c-0.9-0.3-1.8-0.5-2.8-0.5c-0.8,0-1.6,0.1-2.4,0.4c-0.6,0.2-1.2,0.6-1.7,1c-0.5,0.4-0.8,0.9-1.1,1.4c-0.2,0.5-0.4,1.1-0.4,1.7
					c0,0.6,0.1,1.1,0.3,1.7c0.2,0.4,0.5,0.8,0.8,1.2c0.3,0.3,0.7,0.6,1.2,0.8c0.4,0.2,0.9,0.4,1.3,0.5c0.5,0.1,0.9,0.3,1.3,0.4
					s0.8,0.3,1.2,0.4c0.3,0.1,0.6,0.3,0.8,0.6c0.2,0.2,0.3,0.5,0.3,0.8c0,0.2,0,0.5-0.1,0.7c-0.1,0.2-0.3,0.4-0.4,0.6
					c-0.2,0.2-0.5,0.3-0.7,0.4c-0.3,0.1-0.7,0.1-1,0.1c-0.4,0-0.9,0-1.3-0.2c-0.3-0.1-0.6-0.2-0.9-0.4c-0.3-0.1-0.5-0.3-0.7-0.4
					c-0.2-0.1-0.4-0.2-0.6-0.2s-0.4,0-0.5,0.1c-0.2,0.1-0.3,0.2-0.4,0.4l-0.8,1.3c0.3,0.3,0.6,0.5,1,0.7c0.4,0.2,0.8,0.4,1.2,0.6
					c0.5,0.2,0.9,0.3,1.4,0.4c1.3,0.2,2.7,0.2,4-0.2c0.7-0.2,1.3-0.6,1.8-1c0.5-0.4,0.9-1,1.1-1.5c0.3-0.6,0.4-1.3,0.4-2
					c0-1-0.4-1.9-1.1-2.6C84.3,47.7,83.9,47.4,83.5,47.3z"/>
				<polygon class="st0" points="88,39.5 87.8,40.7 87.5,39.5 86.9,39.5 86.9,41.2 87.3,41.2 87.3,39.9 87.6,41.2 87.9,41.2 
					88.2,39.9 88.2,41.2 88.6,41.2 88.6,39.5 				"/>
				<polygon class="st0" points="85.6,39.8 86.2,39.8 86.2,41.2 86.7,41.2 86.7,39.8 87.3,39.8 87.3,39.5 85.6,39.5 				"/>
				<path class="st1" d="M27.9,48.1c-0.2-0.2-0.5-0.4-0.8-0.5c-0.3-0.1-0.6-0.2-1-0.2c-0.4,0-0.7,0.1-1.1,0.2
					c-0.3,0.1-0.6,0.3-0.8,0.5c-0.2,0.2-0.4,0.5-0.5,0.8c-0.1,0.4-0.2,0.7-0.3,1.1h5.1c0-0.4-0.1-0.8-0.2-1.1
					C28.3,48.6,28.1,48.3,27.9,48.1z"/>
				<path class="st1" d="M40.4,54.8c-0.3-0.1-0.7-0.2-1-0.2c-0.4,0-0.8-0.1-1.3-0.1l-1.4-0.1c-0.5,0-0.9,0-1.4-0.1
					c-0.4,0.2-0.7,0.5-1,0.8c-0.2,0.3-0.4,0.7-0.4,1c0,0.3,0.1,0.5,0.2,0.7c0.2,0.2,0.4,0.4,0.6,0.5c0.3,0.2,0.7,0.3,1.1,0.4
					c1.1,0.2,2.2,0.2,3.4,0c0.4-0.1,0.8-0.2,1.2-0.4c0.3-0.1,0.5-0.4,0.7-0.6c0.1-0.2,0.2-0.5,0.2-0.8c0-0.3-0.1-0.5-0.3-0.7
					C40.9,55.1,40.7,54.9,40.4,54.8z"/>
				<path class="st1" d="M35.4,46.9c0.2,0.2,0.5,0.4,0.8,0.5c0.7,0.2,1.5,0.2,2.3,0c0.3-0.1,0.6-0.3,0.8-0.5
					c0.2-0.2,0.4-0.5,0.5-0.8l0,0c0.1-0.3,0.2-0.6,0.2-1c0-0.6-0.2-1.3-0.7-1.7c-0.5-0.5-1.2-0.7-2-0.6c-0.7-0.1-1.4,0.2-2,0.6
					c-0.4,0.5-0.7,1.1-0.7,1.7c0,0.3,0.1,0.7,0.2,1C35,46.5,35.2,46.7,35.4,46.9z"/>
				<path class="st1" d="M50,0C22.3,0,0,22.4,0,50s22.4,50,50,50s50-22.4,50-50S77.6,0,50,0z M15.2,54c-0.1,0.1-0.2,0.2-0.4,0.2
					c-0.1,0.1-0.3,0.1-0.4,0.1H14c-0.4,0-0.7-0.1-1-0.4c-0.3-0.3-0.4-0.7-0.4-1.2v-5.1h-1.1c-0.1,0-0.1,0-0.1-0.1l0,0v-0.1h1.2
					l0.1-2.7v-0.1h0.1H13v2.8h2.3v0.3H13v5.1c0,0.2,0,0.4,0.1,0.6c0,0.1,0.1,0.3,0.2,0.4s0.2,0.2,0.3,0.2c0.3,0.1,0.6,0.1,0.9,0
					c0.1,0,0.2-0.1,0.4-0.2c0.1-0.1,0.2-0.1,0.2-0.2l0.1-0.1h0.1l0.1,0.1C15.4,53.8,15.4,53.9,15.2,54z M22,54.2h-0.4v-4.5
					c0-0.3,0-0.7-0.1-1s-0.2-0.5-0.4-0.8c-0.2-0.2-0.4-0.4-0.6-0.5c-0.3-0.1-0.6-0.2-0.9-0.2c-0.5,0-1,0.1-1.4,0.4
					c-0.5,0.3-0.9,0.7-1.2,1.1v5.4h-0.4V43.9H17v4.6c0.3-0.4,0.7-0.8,1.2-1.1c0.4-0.3,1-0.4,1.5-0.4c0.4,0,0.7,0.1,1,0.2
					c0.3,0.1,0.5,0.3,0.7,0.5c0.2,0.2,0.4,0.5,0.4,0.8c0.1,0.4,0.2,0.7,0.1,1.1v4.6H22z M28.8,50.3L28.8,50.3h-5.4v0.1v0.1
					c0,0.5,0.1,1,0.2,1.5c0.1,0.4,0.3,0.8,0.6,1.1c0.2,0.3,0.5,0.5,0.9,0.7c0.4,0.2,0.8,0.2,1.2,0.2c0.3,0,0.7,0,1-0.1
					c0.2-0.1,0.5-0.2,0.7-0.3c0.2-0.1,0.3-0.2,0.4-0.3c0.1-0.1,0.1-0.1,0.2-0.1h0.1l0.1,0.1c-0.1,0.1-0.3,0.3-0.4,0.4
					c-0.2,0.1-0.4,0.2-0.6,0.3c-0.2,0.1-0.5,0.2-0.7,0.2c-0.3,0.1-0.5,0.1-0.8,0.1c-0.4,0-0.9-0.1-1.3-0.3c-0.4-0.2-0.7-0.4-1-0.7
					c-0.3-0.3-0.5-0.7-0.6-1.2c-0.2-0.5-0.2-1.1-0.2-1.6c0-0.5,0.1-1,0.2-1.4c0.1-0.4,0.3-0.8,0.6-1.1c0.3-0.3,0.6-0.6,1-0.7
					c0.4-0.2,0.9-0.3,1.3-0.3c0.4,0,0.7,0.1,1.1,0.2c0.3,0.1,0.6,0.3,0.9,0.6c0.3,0.3,0.5,0.6,0.6,1c0.1,0.4,0.2,0.9,0.2,1.3
					C28.9,50.2,28.9,50.3,28.8,50.3z M44.2,57.3c-0.3,0.6-0.8,1.2-1.4,1.6c-0.7,0.5-1.4,0.9-2.2,1.2c-1,0.3-2,0.5-3,0.4
					c-1,0-1.9-0.1-2.9-0.3c-0.7-0.2-1.4-0.4-2.1-0.8c-0.5-0.3-0.9-0.7-1.2-1.2c-0.3-0.4-0.4-0.9-0.4-1.5c0-0.6,0.2-1.3,0.6-1.7
					c0.5-0.5,1.1-0.9,1.7-1.1c-0.4-0.2-0.7-0.5-0.9-0.8c-0.2-0.4-0.4-0.9-0.3-1.3c0-0.2,0-0.5,0.1-0.7c0.1-0.2,0.2-0.5,0.4-0.7
					c0.2-0.2,0.4-0.5,0.6-0.6c0.3-0.2,0.5-0.4,0.8-0.5c-0.7-0.4-1.3-0.9-1.8-1.6c-0.1-0.1-0.1-0.3-0.2-0.4h0.7v-1.2V46
					c0.4-0.7,0.8-1.3,1.3-1.9c0.5-0.7,0.8-1.5,0.8-2.3c0-0.3,0-0.5-0.1-0.8c0.1,0,0.2-0.1,0.4-0.1c1.3-0.4,2.7-0.4,4.1-0.1
					c0.6,0.1,1.1,0.1,1.5,0.6h3.7v1.3c0,0.4,0,0.7-0.5,0.8l-1,0.2c0.2,0.5,0.3,1.1,0.3,1.7c0,1.4-0.6,2.6-1.6,3.5
					c-0.5,0.4-1.2,0.8-1.8,1c-0.7,0.2-1.5,0.3-2.3,0.3h-0.8c-0.3,0-0.5-0.1-0.8-0.1c-0.4,0.2-0.6,0.5-0.7,0.9c0,0.3,0.1,0.5,0.4,0.7
					c0.3,0.2,0.7,0.3,1.1,0.3c0.5,0.1,1,0.1,1.5,0.1c0.6,0,1.2,0,1.8,0.1c0.6,0,1.2,0.1,1.8,0.3c0.5,0.1,1.1,0.3,1.5,0.6
					c0.4,0.3,0.8,0.6,1.1,1.1c0.3,0.5,0.4,1.1,0.4,1.7C44.6,56,44.5,56.7,44.2,57.3z M58.5,55.3h-2.2c-0.4,0-0.8-0.2-0.9-0.6
					l-0.2-1.2c-0.6,0.6-1.3,1.1-2,1.5c-0.8,0.4-1.7,0.6-2.6,0.6c-0.7,0-1.5-0.1-2.1-0.4c-0.6-0.3-1.1-0.7-1.6-1.2
					c-0.4-0.5-0.8-1.1-1-1.8c-0.2-0.7-0.3-1.5-0.3-2.3v-9.3h3.5V50c0,0.7,0.2,1.5,0.6,2.1c0.5,0.5,1.2,0.8,1.9,0.7
					c0.6,0,1.2-0.1,1.7-0.4c0.6-0.3,1.1-0.7,1.5-1.1V40.6h3.5l0,0v14.7H58.5z M66.4,59.3c-0.1,0.2-0.2,0.4-0.4,0.6
					c-0.2,0.1-0.5,0.2-0.8,0.2h-2.6l2.7-5.9l-5.9-13.6h3.1c0.2,0,0.5,0.1,0.7,0.2c0.2,0.1,0.3,0.3,0.4,0.5l3.1,7.6
					c0.1,0.3,0.2,0.5,0.3,0.8s0.1,0.5,0.2,0.8l0.3-0.8c0.1-0.3,0.2-0.5,0.3-0.8l2.9-7.6c0.1-0.2,0.2-0.4,0.4-0.5
					c0.2-0.1,0.4-0.2,0.6-0.2h2.8l0,0L66.4,59.3z M85.4,52.6c-0.3,0.6-0.6,1.1-1.1,1.5c-0.5,0.5-1.2,0.8-1.8,1
					c-1.3,0.4-2.7,0.5-4,0.2c-0.5-0.1-0.9-0.2-1.4-0.4c-0.4-0.2-0.8-0.3-1.2-0.6c-0.4-0.2-0.7-0.4-1-0.7l0.8-1.3
					c0.1-0.2,0.2-0.3,0.4-0.4c0.2-0.1,0.4-0.1,0.5-0.1c0.2,0,0.4,0.1,0.6,0.2c0.2,0.1,0.4,0.3,0.7,0.4c0.3,0.2,0.6,0.3,0.9,0.4
					c0.4,0.1,0.9,0.2,1.3,0.2c0.4,0,0.7,0,1.1-0.1c0.3-0.1,0.5-0.2,0.7-0.4c0.2-0.1,0.3-0.3,0.4-0.6c0.1-0.2,0.1-0.4,0.1-0.7
					s-0.1-0.6-0.3-0.8c-0.2-0.2-0.5-0.4-0.8-0.6c-0.4-0.2-0.8-0.3-1.2-0.4c-0.4-0.1-0.9-0.3-1.3-0.4c-0.5-0.2-0.9-0.3-1.3-0.5
					c-0.4-0.2-0.8-0.5-1.2-0.8c-0.3-0.3-0.6-0.7-0.8-1.2c-0.2-0.5-0.3-1.1-0.3-1.7c0-0.6,0.1-1.2,0.4-1.7c0.2-0.5,0.6-1,1.1-1.4
					c0.5-0.4,1.1-0.8,1.7-1c0.8-0.3,1.6-0.4,2.4-0.4c0.9,0,1.9,0.2,2.8,0.5c0.8,0.3,1.5,0.7,2.1,1.3l-0.8,1.3
					c-0.1,0.1-0.2,0.2-0.3,0.3c-0.1,0.1-0.3,0.1-0.4,0.1c-0.2,0-0.4-0.1-0.5-0.1L83,43.4c-0.3-0.1-0.6-0.2-0.9-0.3
					C81.7,43,81.3,43,80.9,43c-0.6,0-1.2,0.1-1.6,0.4c-0.4,0.3-0.6,0.7-0.6,1.2c0,0.3,0.1,0.6,0.3,0.8c0.2,0.2,0.5,0.4,0.8,0.6
					c0.4,0.2,0.8,0.3,1.2,0.4c0.4,0.1,0.9,0.3,1.3,0.4c0.4,0.1,0.9,0.3,1.3,0.5c0.4,0.2,0.8,0.4,1.2,0.7c0.7,0.7,1.2,1.6,1.1,2.6
					C85.8,51.3,85.6,51.9,85.4,52.6z M86.8,39.8h-0.4V41H86v-1.2h-0.4v-0.3h1.2V39.8z M88.2,41v-1.1L87.9,41h-0.4l-0.3-1.1V41h-0.3
					v-1.5h0.5l0.3,1.1l0.3-1.1h0.5V41H88.2z"/>
			</g>
		</g>
	</g>
</g>
</svg>
